<?xml version="1.0" standalone="no"?>
<!DOCTYPE svg PUBLIC "-//W3C//DTD SVG 20010904//EN"
 "http://www.w3.org/TR/2001/REC-SVG-20010904/DTD/svg10.dtd">
<svg version="1.0" xmlns="http://www.w3.org/2000/svg"
 width="1084.000000pt" height="1084.000000pt" viewBox="0 0 1084.000000 1084.000000"
 preserveAspectRatio="xMidYMid meet">
<metadata>
Created by potrace 1.14, written by Peter Selinger 2001-2017
</metadata>
<g transform="translate(0.000000,1084.000000) scale(0.100000,-0.100000)"
fill="#000000" stroke="none">
<path d="M5335 10640 c-3 -5 -15 -10 -26 -10 -10 0 -19 -5 -19 -11 0 -16 -26
-39 -45 -39 -8 0 -18 -7 -21 -15 -4 -8 -10 -12 -15 -9 -5 3 -6 -2 -3 -10 4
-11 0 -16 -10 -16 -9 0 -29 -11 -44 -25 -15 -14 -33 -23 -40 -20 -7 3 -10 0
-7 -5 3 -6 -1 -13 -9 -16 -9 -3 -13 -10 -10 -15 3 -5 -2 -9 -10 -9 -9 0 -16
-7 -16 -15 0 -8 -7 -15 -15 -15 -8 0 -15 -4 -15 -10 0 -5 -9 -10 -21 -10 -11
0 -17 -4 -14 -10 3 -5 -3 -10 -15 -10 -12 0 -18 -4 -15 -11 4 -6 -2 -13 -14
-16 -12 -3 -18 -10 -14 -17 4 -7 2 -7 -8 1 -12 10 -18 8 -29 -7 -8 -11 -24
-20 -37 -20 -12 0 -25 -5 -29 -12 -5 -8 -2 -9 10 -5 10 4 15 3 11 -3 -3 -6
-17 -10 -31 -10 -13 0 -24 -4 -24 -10 0 -5 -8 -10 -17 -10 -22 -1 -53 -23 -53
-39 0 -6 -3 -10 -7 -10 -18 3 -31 -2 -51 -22 -13 -11 -31 -21 -42 -22 -11 -1
-20 -7 -20 -14 0 -7 -7 -13 -15 -13 -8 0 -15 -4 -15 -10 0 -5 -9 -10 -20 -10
-11 0 -20 -7 -20 -15 0 -10 -10 -15 -27 -15 -22 0 -25 -2 -13 -10 12 -8 11
-10 -7 -10 -13 0 -23 -5 -23 -11 0 -5 -4 -8 -9 -4 -5 3 -12 1 -16 -5 -4 -6
-12 -7 -18 -3 -7 4 -5 -2 3 -12 8 -10 10 -16 3 -12 -6 4 -18 1 -26 -7 -11 -11
-17 -12 -26 -3 -7 7 -11 8 -9 2 2 -5 0 -10 -3 -10 -3 0 -14 -8 -24 -18 -9 -10
-25 -16 -34 -13 -11 4 -10 1 4 -10 14 -11 15 -15 5 -14 -34 5 -51 0 -44 -12 5
-8 0 -7 -11 2 -11 9 -16 10 -11 3 4 -8 1 -13 -8 -13 -9 0 -16 -5 -16 -11 0 -5
-4 -8 -10 -4 -5 3 -18 -3 -30 -15 -11 -11 -30 -20 -42 -20 -19 0 -20 -2 -8
-10 11 -7 7 -10 -17 -10 -18 0 -33 -4 -33 -10 0 -5 -7 -10 -16 -10 -8 0 -12
-4 -9 -10 3 -5 2 -10 -4 -10 -5 0 -12 6 -14 13 -4 8 -6 7 -6 -4 -1 -16 -27
-32 -70 -44 -18 -6 -20 -9 -10 -16 10 -6 5 -9 -17 -9 -16 0 -40 -9 -52 -20
-12 -11 -31 -20 -43 -20 -15 0 -19 -5 -15 -15 4 -12 -3 -15 -30 -15 -19 0 -33
-4 -30 -8 7 -11 -32 -32 -62 -35 -12 0 -22 -7 -22 -14 0 -7 -11 -13 -25 -13
-14 0 -25 -4 -25 -10 0 -5 -9 -10 -20 -10 -11 0 -20 -4 -20 -10 0 -5 -11 -10
-25 -10 -16 0 -25 -6 -25 -15 0 -10 -10 -15 -32 -15 -25 0 -29 -3 -18 -10 12
-8 9 -10 -11 -10 -15 0 -39 -6 -54 -14 -15 -8 -35 -12 -44 -9 -12 4 -10 1 4
-11 16 -14 17 -17 3 -12 -10 3 -24 -1 -32 -9 -11 -11 -16 -12 -19 -2 -4 9 -6
9 -6 0 -1 -7 -10 -13 -20 -13 -24 0 -36 -16 -19 -23 7 -3 0 -6 -15 -6 -20 -1
-26 -5 -21 -13 5 -8 0 -7 -11 2 -11 9 -16 10 -11 3 5 -9 0 -13 -14 -13 -14 0
-19 -4 -14 -12 5 -8 0 -7 -11 2 -11 9 -16 10 -11 3 5 -9 -1 -13 -18 -13 -15 0
-25 -5 -24 -12 2 -7 -8 -14 -22 -16 -14 -2 -28 -9 -32 -16 -5 -7 -8 -6 -8 4 0
11 -2 12 -8 3 -5 -7 -20 -14 -35 -15 -15 -1 -27 -6 -27 -10 0 -4 -13 -8 -30
-8 -20 0 -30 -5 -30 -15 0 -10 -11 -15 -35 -15 -19 0 -35 -4 -35 -10 0 -5 -11
-10 -25 -10 -14 0 -25 -4 -25 -10 0 -5 -13 -10 -29 -10 -17 0 -33 -5 -37 -12
-5 -7 -3 -8 6 -3 9 5 11 4 6 -3 -4 -7 -21 -12 -37 -12 -18 0 -28 -4 -24 -10 4
-6 -7 -10 -25 -10 -22 0 -29 -4 -24 -12 5 -8 0 -7 -11 2 -11 9 -16 10 -11 3 6
-12 -11 -18 -36 -14 -5 0 -8 -6 -8 -14 0 -9 -9 -15 -24 -15 -14 0 -27 -4 -30
-9 -3 -4 -20 -12 -38 -16 -18 -4 -40 -9 -48 -12 -8 -2 -26 -4 -39 -5 -16 0
-19 -3 -10 -9 11 -6 11 -9 -1 -12 -8 -2 -31 -9 -51 -16 -19 -6 -45 -11 -57
-11 -11 0 -24 -5 -28 -12 -5 -7 -2 -8 7 -3 10 5 11 5 4 -3 -5 -6 -26 -12 -45
-14 -19 -2 -38 -7 -41 -12 -4 -5 -18 -8 -33 -8 -16 0 -23 -5 -19 -12 4 -6 -2
-4 -12 4 -11 9 -16 10 -11 3 5 -10 -2 -13 -28 -13 -19 0 -38 -4 -41 -10 -3 -6
1 -7 9 -4 9 3 16 2 16 -3 0 -8 -20 -13 -67 -16 -12 0 -19 -5 -17 -9 3 -4 -9
-8 -25 -8 -17 0 -31 -4 -31 -10 0 -5 -5 -10 -11 -10 -5 0 -7 6 -3 13 6 10 4
10 -7 0 -7 -7 -22 -13 -32 -13 -15 0 -17 -3 -8 -13 8 -10 7 -14 -2 -15 -6 0
-29 -2 -49 -3 -21 -1 -35 -6 -32 -11 3 -4 0 -8 -5 -8 -6 0 -11 5 -11 11 0 6
-7 4 -15 -5 -9 -8 -22 -13 -30 -10 -8 4 -15 1 -15 -5 0 -6 -3 -10 -7 -10 -31
5 -83 -3 -78 -11 4 -6 12 -7 18 -4 7 4 8 3 4 -2 -10 -10 -14 -11 -63 -13 -21
0 -33 -5 -29 -11 4 -6 -10 -10 -35 -10 -23 0 -39 -4 -36 -8 3 -5 -1 -9 -9 -9
-8 0 -11 5 -8 11 3 6 0 5 -8 -1 -7 -7 -24 -13 -39 -13 -14 0 -32 -5 -40 -11
-13 -9 -12 -10 2 -5 10 3 20 2 22 -3 3 -4 0 -8 -7 -9 -7 0 -29 -2 -49 -3 -21
-1 -38 -6 -38 -11 0 -4 -17 -8 -37 -8 -21 0 -45 -5 -53 -11 -13 -9 -12 -10 3
-5 11 3 16 2 12 -4 -3 -6 -22 -10 -41 -10 -19 0 -34 -4 -34 -10 0 -5 -13 -10
-30 -10 -16 0 -30 -4 -30 -10 0 -5 -11 -10 -25 -10 -16 0 -25 -6 -25 -15 0 -9
-10 -15 -26 -15 -17 0 -23 -4 -18 -12 5 -8 0 -7 -11 2 -11 9 -16 10 -11 3 4
-8 1 -13 -8 -13 -14 0 -16 -64 -16 -613 0 -338 3 -617 7 -621 10 -9 11 -66 1
-60 -4 3 -8 1 -8 -5 0 -5 6 -12 13 -15 9 -5 9 -7 0 -12 -7 -3 -13 -10 -13 -15
0 -6 4 -8 9 -5 5 3 9 -25 10 -62 4 -125 7 -162 16 -169 4 -5 6 -3 2 2 -3 6 -2
17 2 24 5 7 9 -24 10 -70 1 -47 7 -89 14 -98 9 -12 9 -13 -1 -7 -7 4 -12 1
-12 -9 0 -10 5 -13 13 -9 8 5 8 2 -2 -9 -10 -13 -10 -17 -1 -17 9 0 10 -3 1
-13 -6 -8 -7 -17 -1 -23 5 -5 10 -46 11 -91 2 -46 7 -83 11 -83 4 0 8 -5 8
-11 0 -5 -4 -8 -8 -5 -5 3 -9 -1 -9 -9 0 -8 4 -12 9 -9 4 3 8 -2 8 -11 0 -10
-5 -14 -12 -9 -10 6 -10 4 0 -7 6 -7 12 -30 12 -51 0 -23 4 -37 11 -35 6 1 13
-6 14 -16 2 -9 -1 -15 -6 -11 -5 3 -6 11 -3 17 4 7 3 9 -1 4 -15 -13 -13 -46
2 -40 10 4 13 -8 13 -47 0 -28 4 -49 8 -46 5 3 9 -1 9 -9 0 -8 -3 -12 -7 -10
-4 2 -7 -2 -7 -10 0 -8 4 -12 9 -9 4 3 8 -16 8 -41 0 -31 4 -44 11 -39 8 5 8
1 0 -13 -6 -11 -7 -24 -3 -28 9 -8 9 -12 11 -76 1 -31 5 -48 11 -44 6 4 8 11
5 16 -4 5 -1 9 4 9 17 0 13 -28 -6 -40 -17 -11 -17 -11 0 -6 14 5 17 -1 17
-40 0 -28 4 -43 10 -39 13 8 8 -18 -5 -27 -6 -5 -5 -8 4 -8 11 0 11 -3 0 -17
-10 -11 -10 -14 -1 -9 9 5 12 -4 12 -34 0 -23 4 -39 9 -36 18 12 22 -28 4 -43
-17 -13 -17 -13 0 -8 14 5 17 0 17 -33 0 -22 5 -40 10 -40 6 0 10 -15 10 -33
0 -18 6 -39 13 -46 10 -11 9 -12 -1 -6 -11 6 -12 3 -3 -13 6 -12 11 -25 10
-29 -4 -22 2 -44 10 -38 5 3 13 0 17 -6 4 -7 3 -9 -3 -6 -6 4 -13 0 -17 -8 -3
-8 0 -17 6 -21 7 -4 8 -3 4 4 -4 7 -2 12 3 12 6 0 11 -15 11 -34 0 -19 4 -38
10 -41 5 -3 10 -24 10 -46 0 -24 5 -39 13 -39 9 0 8 -3 -2 -9 -8 -6 -9 -10 -2
-12 6 -2 11 -25 12 -51 1 -27 6 -48 11 -48 5 0 7 4 3 9 -3 5 -2 12 2 14 5 3 9
-11 10 -30 1 -20 7 -41 13 -47 5 -5 10 -27 10 -48 0 -21 4 -38 8 -38 7 0 11
-16 14 -57 1 -7 7 -13 15 -13 8 0 13 -12 13 -35 0 -19 5 -35 10 -35 6 0 10
-17 10 -38 0 -21 4 -42 10 -48 5 -5 11 -26 12 -47 3 -33 4 -35 16 -20 11 16
12 15 8 -7 -2 -14 3 -36 11 -49 8 -13 10 -20 4 -17 -6 4 -11 3 -11 -3 0 -5 4
-11 10 -13 5 -1 10 -20 12 -40 1 -20 6 -34 10 -32 5 3 6 9 3 14 -3 5 -2 11 3
14 4 2 9 -10 10 -27 2 -18 7 -33 12 -35 6 -2 10 -8 10 -13 0 -6 -4 -8 -8 -5
-5 3 -9 -1 -9 -9 0 -8 4 -12 9 -9 4 3 8 -8 8 -25 0 -16 5 -33 10 -36 6 -3 10
-19 10 -35 0 -16 5 -32 12 -36 7 -4 8 -3 4 4 -4 7 -2 12 3 12 6 0 11 -15 11
-34 0 -19 5 -36 11 -38 6 -2 11 -20 12 -41 1 -22 4 -32 9 -24 5 7 8 2 8 -15 0
-15 8 -32 17 -38 17 -11 17 -11 1 -6 -10 3 -18 1 -18 -4 0 -6 7 -10 15 -10 13
0 20 -18 16 -43 0 -4 3 -7 9 -7 5 0 10 -12 10 -26 0 -14 4 -23 10 -19 5 3 10
-3 10 -15 0 -11 7 -23 15 -26 8 -4 15 -17 15 -30 0 -13 4 -24 8 -24 8 0 10 -6
14 -49 1 -11 6 -17 10 -15 4 3 8 -4 8 -16 0 -11 7 -23 15 -26 8 -4 15 -12 15
-20 0 -8 6 -14 13 -14 9 0 8 -3 -2 -9 -9 -6 -10 -10 -2 -12 7 -3 13 -14 14
-26 0 -12 5 -19 9 -17 5 3 5 10 2 16 -4 7 -2 8 4 4 7 -4 12 -15 12 -25 0 -9 6
-23 13 -30 9 -11 9 -13 0 -7 -18 10 -16 -2 2 -21 8 -8 13 -19 10 -24 -4 -5 -1
-9 4 -9 6 0 11 -11 11 -25 0 -14 5 -24 12 -23 7 2 14 -8 16 -21 2 -13 10 -31
18 -38 8 -8 12 -19 9 -24 -4 -5 -1 -9 4 -9 6 0 11 -7 11 -15 0 -8 7 -15 16
-15 8 0 13 -4 9 -9 -3 -5 2 -16 10 -24 8 -9 15 -22 15 -31 0 -8 5 -18 11 -21
6 -4 8 -13 5 -21 -3 -8 -1 -14 5 -14 6 0 7 -6 3 -12 -5 -8 -2 -8 10 1 9 8 16
10 15 5 -4 -23 2 -45 11 -39 5 3 10 -3 10 -15 0 -12 7 -28 15 -36 8 -8 12 -22
9 -32 -5 -14 -2 -13 12 3 12 15 15 16 11 3 -3 -9 1 -24 8 -35 8 -10 15 -26 15
-35 0 -10 7 -18 15 -18 8 0 14 -3 14 -7 -3 -20 2 -34 11 -28 6 4 10 -5 10 -19
0 -14 5 -26 10 -26 6 0 10 -7 10 -14 0 -8 11 -27 25 -42 14 -15 25 -33 25 -40
0 -8 6 -14 13 -14 9 0 9 -2 1 -8 -13 -8 1 -27 21 -29 6 -1 12 -11 15 -22 3
-11 13 -30 22 -41 10 -11 18 -24 18 -29 0 -5 7 -11 15 -15 8 -3 15 -13 15 -23
0 -15 2 -16 10 -3 8 12 10 10 10 -11 0 -29 21 -79 33 -79 14 0 37 -28 37 -44
0 -18 30 -57 40 -51 3 2 7 -5 7 -16 1 -10 9 -26 17 -35 9 -9 13 -21 9 -27 -4
-7 1 -6 10 2 15 12 17 11 17 -11 0 -13 9 -30 20 -38 11 -8 20 -25 20 -38 0
-13 4 -20 10 -17 6 4 7 11 4 17 -4 7 -2 8 5 4 6 -4 9 -11 6 -16 -3 -5 5 -19
17 -32 13 -13 24 -30 26 -38 2 -8 8 -19 14 -25 8 -7 9 -6 4 3 -4 6 -2 12 3 12
6 0 11 -9 11 -20 0 -11 5 -20 10 -20 6 0 10 -7 10 -15 0 -8 5 -15 11 -15 5 0
8 -4 5 -9 -3 -5 3 -11 14 -14 11 -3 20 -14 20 -24 0 -10 9 -25 20 -33 11 -8
20 -22 20 -32 0 -9 5 -20 12 -24 7 -4 8 -3 4 4 -4 7 -2 12 3 12 6 0 11 -9 11
-21 0 -11 4 -17 10 -14 6 3 10 -3 10 -14 0 -12 5 -21 10 -21 14 0 60 -46 60
-60 0 -5 5 -10 11 -10 6 0 17 -7 25 -15 9 -8 11 -15 5 -15 -6 0 -11 -5 -11
-10 0 -6 3 -9 8 -9 4 1 14 1 22 0 13 -1 13 -2 0 -11 -13 -8 -12 -10 3 -10 9 0
17 -6 17 -12 0 -9 4 -8 10 2 9 13 10 13 11 0 1 -8 1 -21 0 -28 -1 -7 4 -11 11
-10 8 2 12 -4 10 -16 -2 -11 1 -15 7 -11 6 3 11 1 11 -4 0 -6 7 -11 15 -11 8
0 15 -5 15 -10 0 -15 46 -60 61 -60 6 0 9 -7 5 -15 -3 -8 -1 -15 5 -15 6 0 7
-5 4 -10 -4 -6 -1 -9 7 -8 7 2 12 -3 10 -11 -3 -12 -1 -12 15 -1 10 8 15 10
11 6 -4 -5 0 -15 10 -23 10 -9 11 -11 2 -7 -13 7 -13 5 -1 -9 7 -9 17 -14 22
-11 5 3 9 2 8 -3 -4 -22 2 -43 12 -43 6 0 17 -7 26 -15 8 -8 19 -13 24 -9 5 3
8 0 7 -8 -2 -7 3 -12 10 -10 7 1 17 -9 22 -23 5 -14 16 -25 25 -25 8 0 15 -4
15 -10 0 -5 7 -10 15 -10 8 0 14 -4 13 -9 -3 -9 52 -61 65 -61 4 0 7 -5 7 -11
0 -13 20 -33 43 -42 9 -4 20 -15 24 -24 9 -24 29 -44 37 -36 3 3 9 -3 13 -13
8 -22 48 -64 60 -64 5 0 14 -9 21 -20 7 -12 18 -18 25 -14 7 4 9 4 5 -1 -11
-12 11 -35 33 -35 12 0 16 -5 13 -15 -4 -9 0 -15 10 -15 9 0 16 -4 16 -10 0
-5 5 -10 11 -10 12 0 39 -25 39 -37 0 -4 9 -14 21 -21 13 -9 18 -9 14 -2 -4 7
1 7 14 -2 19 -12 26 -28 22 -51 -1 -5 3 -6 9 -2 6 3 8 11 5 16 -4 5 -1 9 4 9
6 0 11 -5 11 -10 0 -16 47 -60 64 -60 9 0 13 -6 10 -13 -3 -8 9 -18 31 -27 19
-7 35 -18 35 -22 0 -5 11 -20 25 -33 24 -25 41 -33 30 -15 -3 6 -1 10 4 10 6
0 11 -7 11 -16 0 -9 5 -12 13 -8 7 5 6 0 -3 -11 -8 -10 -10 -16 -3 -12 6 4 18
0 26 -8 9 -8 20 -15 25 -15 6 0 12 -5 14 -10 2 -6 13 -12 25 -13 12 0 19 -5
17 -9 -3 -5 -10 -5 -16 -2 -7 4 -8 2 -4 -5 4 -6 11 -9 16 -6 4 3 23 -9 41 -26
18 -17 38 -28 47 -24 12 5 13 3 2 -10 -7 -9 -9 -15 -4 -14 26 5 45 -2 38 -13
-5 -8 0 -7 11 2 11 9 16 10 11 3 -4 -8 -1 -13 8 -13 11 0 16 -9 16 -29 0 -35
5 -39 53 -43 37 -2 48 -12 25 -21 -7 -3 -2 -6 11 -6 13 -1 32 -10 41 -22 10
-11 27 -21 39 -22 16 -1 18 -4 9 -15 -6 -7 -7 -12 -2 -11 23 4 45 -2 39 -11
-3 -6 1 -10 9 -10 9 0 16 -4 16 -10 0 -5 11 -10 25 -10 18 0 23 -4 19 -15 -4
-10 0 -15 11 -15 9 0 13 -5 10 -11 -4 -6 0 -9 11 -7 11 2 18 -2 16 -10 -1 -6
1 -11 5 -11 25 4 43 -3 43 -16 0 -8 7 -15 16 -15 8 0 13 -4 10 -8 -4 -7 9 -11
51 -14 7 -1 10 -5 7 -10 -5 -7 10 -12 29 -9 4 0 7 -6 7 -14 0 -9 9 -15 23 -15
18 0 19 -2 7 -10 -12 -8 -9 -10 13 -10 17 0 27 -5 27 -15 0 -8 7 -15 16 -15 8
0 13 -4 10 -8 -2 -4 6 -9 18 -10 31 -2 73 -25 69 -38 -2 -5 7 -10 18 -11 12
-1 25 -6 28 -10 3 -4 15 -15 25 -23 15 -11 18 -11 12 -1 -6 9 -1 8 16 -3 14
-9 29 -13 33 -9 5 5 4 1 -2 -7 -10 -13 -8 -18 9 -29 11 -7 17 -8 13 -2 -3 6
-1 11 4 11 6 0 11 -4 11 -10 0 -6 33 -10 80 -10 47 0 80 4 80 10 0 6 11 10 25
10 16 0 25 6 25 15 0 8 7 15 16 15 9 0 12 5 8 13 -5 7 0 6 11 -3 11 -9 16 -10
11 -2 -4 7 -2 12 7 12 19 0 49 34 40 45 -5 4 -2 5 5 1 7 -4 10 -12 7 -17 -4
-5 -1 -9 4 -9 6 0 11 5 11 11 0 16 31 38 52 39 9 0 18 5 20 11 2 5 11 11 20
13 10 1 21 6 25 11 4 4 3 5 -4 1 -6 -3 -14 -3 -17 2 -2 4 5 9 17 9 12 1 23 7
25 13 2 5 15 10 28 10 15 0 23 4 19 11 -4 6 2 13 14 16 11 3 19 8 17 12 -3 4
5 8 17 8 12 1 23 7 25 13 2 5 12 10 23 10 10 0 19 7 19 15 0 8 5 15 11 15 6 0
17 6 25 14 8 8 23 12 35 9 15 -4 20 -3 15 5 -7 11 6 17 28 13 5 -1 3 5 -4 14
-7 9 -9 15 -4 14 25 -4 54 2 49 11 -3 5 3 10 14 10 12 0 21 5 21 10 0 6 8 10
17 10 10 0 27 12 39 26 12 14 31 26 42 27 12 0 20 6 19 12 -1 5 4 9 12 7 11
-2 12 0 3 10 -8 11 -7 14 9 15 21 2 49 26 49 42 0 6 6 10 13 9 6 -2 11 3 9 11
-3 12 -1 12 14 0 12 -9 15 -9 10 -1 -4 7 -1 12 8 12 9 0 16 5 16 10 0 6 7 10
15 10 8 0 15 7 15 15 0 8 7 15 16 15 8 0 12 5 9 10 -3 6 3 10 15 10 23 0 50
22 50 40 0 6 5 8 10 5 6 -3 10 1 10 11 0 14 3 14 16 4 8 -8 14 -9 12 -4 -2 5
1 10 5 11 13 4 37 31 37 42 0 6 7 11 15 11 8 0 15 5 15 10 0 6 7 10 15 10 8 0
15 5 15 10 0 6 9 10 20 10 11 0 20 5 20 11 0 16 26 39 44 39 10 0 13 6 10 15
-6 14 6 20 29 16 5 -1 6 3 2 9 -3 5 1 10 10 10 9 0 13 5 10 10 -4 6 -3 10 2 9
19 -3 33 2 33 12 0 11 25 39 35 39 4 0 13 7 21 15 9 8 12 15 8 15 -4 0 3 10
15 21 19 18 25 19 32 8 6 -10 9 -8 9 9 0 13 4 20 10 17 6 -3 10 -1 10 5 0 6 5
8 13 4 7 -5 7 -1 -3 12 -8 10 -10 16 -6 12 5 -4 15 0 23 10 10 11 12 12 8 2
-3 -8 2 -5 11 7 9 13 25 23 35 23 11 0 19 4 19 10 0 5 -8 7 -17 4 -10 -2 -7 1
7 8 14 7 32 20 41 30 9 10 21 18 28 18 6 0 11 6 11 13 0 16 54 49 64 40 4 -4
4 0 0 10 -3 10 -1 17 6 17 6 0 8 5 4 12 -4 6 -3 8 3 5 21 -13 69 48 65 84 -1
3 5 6 13 6 8 0 12 -4 10 -8 -3 -4 6 -2 20 4 14 7 23 18 20 25 -2 6 0 12 6 12
6 0 7 5 4 10 -4 6 -3 10 2 9 23 -4 43 2 41 14 -2 6 3 11 11 9 12 -3 12 -1 1
13 -11 14 -11 16 1 13 8 -2 13 3 11 10 -1 6 4 11 10 10 7 -2 12 3 10 11 -3 12
-1 12 14 0 10 -8 15 -9 11 -3 -4 7 0 17 8 24 8 7 15 19 15 27 0 8 5 11 10 8 6
-3 10 3 10 14 0 12 5 21 10 21 17 0 60 47 60 65 0 9 4 13 10 10 13 -8 61 41
63 65 1 14 4 16 14 8 12 -10 18 0 14 25 -1 5 3 6 8 3 5 -3 15 2 22 11 11 13
11 15 1 9 -11 -7 -11 -4 0 13 15 24 24 27 31 9 3 -7 6 -3 6 10 1 12 6 22 11
22 6 0 10 6 10 13 0 8 11 20 25 27 23 12 31 29 25 55 -1 5 2 7 6 3 4 -4 13 0
21 10 10 11 12 12 8 2 -4 -8 0 -6 9 4 8 10 13 23 10 27 -3 5 3 9 12 9 10 0 15
3 11 6 -8 8 18 34 33 34 6 0 9 4 5 9 -3 5 -1 12 5 16 6 4 7 11 4 17 -4 7 -2 8
4 4 8 -4 12 0 12 11 0 15 2 16 10 3 8 -12 10 -9 10 13 0 15 5 27 11 27 14 0
39 26 39 40 0 6 5 8 13 4 7 -5 6 0 -3 11 -9 11 -10 16 -2 11 7 -4 12 -1 12 8
0 9 5 16 11 16 5 0 7 -5 3 -12 -4 -7 -3 -8 4 -4 7 4 12 16 12 27 0 10 5 19 10
19 6 0 10 7 10 15 0 9 6 12 15 8 10 -3 15 0 13 8 -2 8 3 13 11 11 12 -3 12 -1
0 14 -9 12 -9 15 -1 10 7 -4 12 -2 12 4 0 14 25 40 39 40 10 0 16 21 12 43 -1
5 3 6 9 2 5 -3 10 1 10 9 0 9 5 16 10 16 6 0 10 12 10 28 0 21 2 24 10 12 8
-13 11 -11 16 8 4 12 9 22 13 22 4 0 13 16 21 35 8 19 18 35 22 35 5 0 6 -5 2
-12 -5 -7 -3 -8 5 -4 7 5 10 14 7 22 -3 8 -1 14 4 14 5 0 12 9 15 20 4 12 11
17 18 14 8 -5 8 -2 0 7 -15 16 -17 33 -3 24 6 -3 10 -1 10 4 0 6 5 11 11 11
15 0 38 30 39 50 0 8 9 21 21 28 11 7 18 18 16 25 -2 7 4 19 14 27 9 9 19 27
21 40 2 14 9 24 16 22 6 -1 12 5 12 14 0 8 4 13 9 10 4 -3 8 2 8 12 0 34 3 43
13 37 6 -4 10 5 10 19 0 16 6 26 15 26 13 0 17 6 14 26 0 4 4 10 11 14 6 4 12
16 13 28 0 12 3 19 5 17 8 -8 42 36 42 56 0 11 4 18 8 15 7 -4 20 20 36 67 3
10 10 15 16 12 6 -4 10 5 10 19 0 14 5 26 10 26 6 0 10 7 10 16 0 8 5 12 10 9
6 -3 10 -2 10 4 0 5 -6 12 -12 14 -8 3 -6 6 5 6 10 1 17 9 17 21 0 11 5 20 10
20 6 0 10 11 10 25 0 14 5 25 10 25 6 0 10 7 10 16 0 11 6 14 18 10 15 -6 15
-5 -1 8 -12 9 -14 16 -8 21 6 3 11 3 11 0 0 -4 7 0 15 9 8 8 15 24 15 35 0 11
5 23 10 26 6 3 10 18 11 33 0 15 3 21 6 15 8 -20 19 -15 20 9 1 11 7 24 14 28
8 6 8 9 -2 13 -10 4 -10 6 -1 6 6 1 12 8 12 16 0 8 5 15 10 15 6 0 10 8 10 19
0 10 7 24 15 31 8 7 15 19 15 26 0 8 4 14 9 14 5 0 9 6 8 12 0 7 1 24 2 38 1
20 3 22 11 10 7 -11 10 -3 10 30 0 33 3 41 10 30 9 -13 14 -7 11 13 0 4 4 7
10 7 5 0 8 4 5 9 -3 5 0 21 8 36 8 15 12 34 9 43 -4 10 -2 13 5 8 8 -5 12 3
12 24 0 25 4 31 15 26 11 -4 15 2 15 25 0 18 4 28 10 24 6 -4 10 8 10 29 0 20
5 36 11 36 5 0 8 -4 4 -9 -3 -5 -1 -12 5 -16 6 -4 10 9 10 34 0 23 5 41 10 41
6 0 10 12 10 26 0 14 4 23 10 19 6 -3 10 -2 10 4 0 5 -6 12 -12 14 -10 4 -10
6 0 6 7 1 12 16 12 39 1 33 2 35 14 20 11 -16 13 -14 14 16 2 43 5 60 14 66 4
3 8 20 10 38 1 18 6 32 10 32 4 0 7 3 7 8 -3 20 3 75 8 64 9 -23 23 -1 23 39
0 22 4 38 8 35 4 -2 9 9 10 25 3 42 6 53 14 59 4 3 8 22 10 43 2 37 12 49 21
25 2 -7 5 3 6 22 1 19 3 43 4 52 1 9 5 14 9 12 4 -3 8 11 8 31 0 22 4 34 10
30 6 -4 10 10 10 35 0 31 4 41 13 37 9 -3 14 6 15 31 2 20 8 39 14 43 7 4 6 9
-3 13 -11 5 -11 7 -1 12 7 3 12 24 12 49 0 24 5 47 12 51 8 5 9 1 4 -12 -5
-13 -4 -16 3 -9 5 6 11 38 13 71 2 34 6 60 11 57 4 -2 7 20 7 49 0 38 3 49 10
38 7 -11 10 0 11 40 1 30 1 59 0 63 -1 5 3 6 8 2 6 -3 7 -13 4 -22 -4 -10 -2
-14 4 -10 5 3 10 25 11 48 1 23 8 49 14 57 11 13 10 14 -2 7 -12 -7 -13 -6 -4
6 5 8 12 32 13 54 2 22 8 46 14 54 10 12 9 13 -3 6 -12 -7 -13 -6 -3 6 13 17
13 15 13 80 0 39 3 50 13 46 10 -4 14 9 16 51 1 31 8 63 14 71 9 11 9 13 0 8
-8 -5 -11 -1 -10 12 0 11 4 18 8 15 4 -2 8 21 9 51 2 83 4 94 12 89 4 -3 8 2
8 11 0 10 -5 14 -12 9 -10 -6 -10 -4 0 7 6 7 12 37 12 66 0 40 4 53 15 53 12
0 15 13 15 55 0 36 4 55 12 55 9 0 9 3 0 12 -7 7 -12 17 -12 23 0 5 5 3 10 -5
7 -10 10 10 10 67 0 46 5 85 10 88 8 5 8 11 1 19 -7 9 -7 16 1 24 9 9 9 12 -2
12 -13 0 -13 2 0 10 13 9 13 11 0 20 -10 6 -11 10 -2 10 9 0 12 24 12 85 0 76
2 84 18 79 16 -5 16 -5 0 6 -20 12 -24 30 -7 30 5 0 7 -5 3 -12 -4 -6 -3 -8 3
-5 6 4 11 44 13 89 4 125 4 132 14 147 6 10 6 12 -2 7 -7 -4 -12 -2 -12 3 0 6
5 11 10 11 6 0 10 5 10 11 0 5 -4 8 -9 4 -6 -3 -7 4 -3 17 4 13 8 296 9 631 3
484 1 607 -9 607 -9 0 -8 3 2 10 11 7 5 10 -22 10 -26 0 -38 4 -38 14 0 10
-10 14 -31 14 -17 -1 -34 3 -37 8 -4 5 -20 11 -37 12 -16 2 -31 8 -33 13 -2 5
-20 9 -39 9 -27 0 -34 3 -29 15 3 8 2 14 -2 14 -4 -1 -27 -1 -52 0 -33 1 -41
4 -30 11 11 7 3 10 -30 11 -25 1 -48 1 -52 1 -3 -1 -12 5 -18 13 -7 8 -23 15
-37 15 -14 0 -21 4 -18 10 4 6 -10 10 -34 10 -23 0 -41 5 -41 10 0 6 -18 10
-40 10 -22 0 -40 5 -40 11 0 5 6 7 13 3 6 -4 8 -3 4 1 -4 5 -22 10 -40 11 -17
2 -33 8 -35 13 -2 6 -11 11 -20 11 -15 0 -15 -2 -2 -10 9 -6 10 -10 3 -10 -6
0 -15 5 -18 10 -3 6 -15 10 -26 10 -11 0 -18 3 -16 8 4 6 -20 11 -89 15 -12 1
-20 7 -17 13 2 6 -4 14 -14 18 -10 3 -25 9 -33 12 -13 5 -13 4 0 -5 9 -7 10
-11 3 -11 -6 0 -15 5 -18 10 -3 6 -17 10 -31 10 -13 0 -24 5 -24 10 0 6 -11
10 -25 10 -13 0 -29 8 -35 18 -11 16 -11 16 -6 0 3 -10 1 -18 -4 -18 -6 0 -10
7 -10 15 0 8 -9 15 -20 15 -11 0 -20 5 -20 10 0 6 -5 10 -11 10 -5 0 -7 -6 -3
-12 6 -10 4 -10 -7 0 -7 6 -24 12 -39 12 -19 0 -22 2 -10 10 10 6 5 9 -19 8
-21 -1 -39 5 -46 15 -7 10 -26 17 -44 17 -19 0 -30 4 -26 10 4 6 -10 10 -35
10 -27 0 -43 5 -46 15 -4 8 -14 15 -23 15 -10 0 -21 3 -25 7 -4 4 -19 9 -34
11 -15 2 -30 9 -34 15 -5 9 -8 8 -8 -3 0 -12 -2 -12 -9 -2 -4 7 -18 14 -29 15
-12 1 -22 7 -22 14 0 7 -11 13 -25 13 -14 0 -25 5 -25 10 0 6 -11 10 -25 10
-14 0 -25 5 -25 10 0 6 -16 10 -35 10 -24 0 -33 4 -29 13 3 8 -5 13 -23 15
-15 1 -29 6 -33 12 -3 5 -24 10 -47 11 -23 2 -40 6 -37 11 3 4 -14 8 -37 8
-33 0 -39 3 -30 13 8 10 7 14 -4 14 -8 0 -15 -5 -15 -11 0 -6 -4 -5 -9 3 -5 7
-20 14 -35 14 -14 0 -23 3 -20 8 3 5 -6 9 -20 9 -14 0 -26 5 -26 10 0 6 -13
10 -29 10 -17 0 -33 5 -37 12 -4 7 -3 8 4 4 7 -4 12 -2 12 3 0 6 -12 11 -26
11 -17 0 -23 4 -18 13 5 8 2 8 -9 -2 -9 -7 -17 -9 -17 -4 0 10 -69 40 -83 35
-5 -2 -7 3 -4 10 2 8 -6 19 -19 25 -15 7 -22 7 -18 1 4 -6 1 -8 -7 -4 -8 3
-22 9 -31 12 -10 4 -18 10 -18 14 0 4 -21 15 -47 25 -27 10 -53 24 -60 30 -6
7 -24 11 -38 10 -22 -3 -24 -1 -14 11 9 11 7 14 -10 14 -11 0 -21 5 -21 11 0
6 -6 9 -14 6 -8 -3 -20 1 -26 9 -7 8 -23 14 -36 14 -15 0 -24 6 -24 15 0 14
-12 19 -32 16 -5 0 -8 3 -8 9 0 5 -9 10 -19 10 -11 0 -23 5 -26 10 -3 6 -14
10 -23 10 -9 0 -27 12 -39 27 -13 14 -23 21 -23 15 0 -7 -5 -12 -11 -12 -5 0
-7 5 -4 10 3 6 -3 10 -15 10 -12 0 -18 5 -15 10 4 6 -9 10 -31 10 -32 0 -35 2
-24 16 8 8 9 14 4 12 -13 -3 -94 34 -94 44 0 4 -7 8 -16 8 -8 0 -22 7 -30 15
-8 8 -22 11 -31 8 -11 -4 -14 -3 -9 5 4 7 1 12 -7 12 -8 0 -17 7 -21 15 -3 8
-15 15 -26 15 -11 0 -20 5 -20 11 0 5 -4 8 -9 5 -4 -3 -17 1 -27 9 -10 8 -27
15 -38 15 -16 0 -17 2 -5 17 8 9 9 14 3 10 -6 -3 -20 0 -30 8 -10 8 -32 15
-47 15 -16 0 -26 4 -22 10 4 6 -11 10 -39 10 -25 0 -48 5 -52 12 -5 8 -2 9 9
5 9 -3 18 -3 21 1 4 7 -11 11 -52 14 -7 1 -11 7 -8 14 3 8 1 16 -4 19 -5 3 -7
11 -4 18 4 11 -6 15 -53 19 -7 1 -10 5 -7 10 5 8 -5 11 -39 11 -13 0 -15 3 -6
13 9 11 7 14 -9 14 -11 0 -22 4 -24 9 -1 5 -12 11 -23 13 -11 1 -23 7 -26 11
-3 4 -16 9 -28 10 -11 1 -20 6 -18 11 4 13 -38 36 -65 36 -10 0 -16 5 -13 10
3 6 -1 10 -9 10 -9 0 -15 5 -14 12 2 6 -6 14 -17 16 -11 2 -22 8 -26 13 -3 5
-23 18 -45 29 -21 10 -32 20 -24 20 8 0 -2 9 -23 19 -20 9 -34 20 -30 24 3 4
-3 7 -15 7 -13 0 -22 6 -22 15 0 8 -9 15 -21 15 -11 0 -17 5 -14 10 6 9 -8 15
-29 11 -5 -1 -4 4 2 11 9 11 6 14 -11 15 -12 1 -23 7 -25 13 -2 5 -10 10 -18
10 -9 0 -12 5 -9 10 6 9 -16 15 -39 11 -5 -1 -3 6 5 15 9 12 9 15 2 10 -8 -4
-13 -2 -13 4 0 6 -4 8 -10 5 -5 -3 -10 -1 -10 4 0 6 -7 11 -15 11 -8 0 -15 5
-15 11 0 5 -4 8 -9 5 -5 -3 -15 2 -22 11 -10 12 -10 14 -1 9 6 -4 12 -2 12 3
0 6 -11 11 -25 11 -14 0 -25 5 -25 10 0 6 -33 10 -79 10 -44 0 -83 -4 -86 -10z
m655 -354 c0 -3 -4 -8 -10 -11 -5 -3 -10 -1 -10 4 0 6 5 11 10 11 6 0 10 -2
10 -4z m3840 -3165 c0 -6 -4 -12 -8 -15 -5 -3 -9 1 -9 9 0 8 4 15 9 15 4 0 8
-4 8 -9z"/>
<path d="M8960 8906 c0 -2 7 -7 16 -10 8 -3 12 -2 9 4 -6 10 -25 14 -25 6z"/>
<path d="M9405 8760 c3 -5 8 -10 11 -10 2 0 4 5 4 10 0 6 -5 10 -11 10 -5 0
-7 -4 -4 -10z"/>
<path d="M1000 6999 c0 -5 5 -7 10 -4 6 3 10 8 10 11 0 2 -4 4 -10 4 -5 0 -10
-5 -10 -11z"/>
<path d="M1190 5799 c0 -5 5 -7 10 -4 6 3 10 8 10 11 0 2 -4 4 -10 4 -5 0 -10
-5 -10 -11z"/>
</g>
</svg>
