<svg width="92" height="24" viewBox="0 0 92 24" fill="none" xmlns="http://www.w3.org/2000/svg">
<path d="M10.1824 0H10.5042L11.3624 0.642857L11.7379 0.910714L12.3279 1.23214L12.4351 1.28571V1.39286L12.7569 1.5L13.5079 1.92857L14.7415 2.57143L15.7606 3.05357L16.297 3.21429L16.9406 3.48214L18.4424 4.01786L19.837 4.44643L20.4806 4.66071L20.5343 4.71429V7.28571L20.3733 9.05357L20.0515 10.9821L19.7297 12.3214L19.1397 14.1964L18.6033 15.4286L18.0133 16.5536L17.3697 17.625L16.7797 18.4821L16.1897 19.2321L15.5461 19.9821L14.7951 20.7857H14.6879V20.8929L14.2588 21.2679L13.6151 21.8571L13.0788 22.2857L12.1669 22.9821L11.2015 23.5714L10.5042 24H10.1824L9.10966 23.3571L8.35875 22.8214L8.19783 22.7679V22.6607L7.98329 22.5536L7.23238 21.9643L6.48146 21.3214L5.99873 20.8393L5.56964 20.4643L5.08691 19.9286L4.60418 19.3929L3.90691 18.4821L3.15599 17.3571L2.40508 16.0714L1.76144 14.7321L1.43962 13.8214L1.01053 12.4821L0.68871 11.25L0.36689 9.48214L0.20598 8.03571L0.152344 7.28571V4.71429L0.635073 4.5L2.08326 4.07143L3.63872 3.53571L4.55055 3.16071L5.14055 2.94643L6.48146 2.30357L7.87602 1.55357L8.46602 1.17857L8.78784 0.964286L9.27057 0.696429L10.0215 0.107143L10.1824 0Z" fill="white"/>
<path d="M10.1991 1.32666H10.4866L11.2534 1.89845L11.5889 2.13669L12.116 2.42259L12.2119 2.47024V2.56553L12.4994 2.66083L13.1703 3.04202L14.2726 3.61381L15.1831 4.04265L15.6624 4.1856L16.2375 4.42384L17.5793 4.90033L18.8254 5.28152L19.4004 5.47212L19.4484 5.51977V7.80692L19.3046 9.37933L19.017 11.0947L18.7295 12.2859L18.2023 13.9536L17.7231 15.0496L17.1959 16.0502L16.6209 17.0032L16.0937 17.7656L15.5665 18.4326L14.9914 19.0997L14.3205 19.8145H14.2247V19.9098L13.8413 20.2433L13.2662 20.7674L12.7869 21.1486L11.9722 21.7681L11.1096 22.2922L10.4866 22.6734H10.1991L9.24059 22.1016L8.56965 21.6251L8.42588 21.5775V21.4822L8.23418 21.3869L7.56325 20.8627L6.89232 20.2909L6.461 19.8621L6.07761 19.5286L5.6463 19.0521L5.21498 18.5756L4.59197 17.7656L3.92104 16.7649L3.25011 15.6213L2.67502 14.4301L2.38748 13.6201L2.00409 12.4289L1.71654 11.3329L1.429 9.76053L1.28523 8.474L1.2373 7.80692V5.51977L1.66862 5.32917L2.96256 4.94798L4.35235 4.47149L5.16706 4.13795L5.69422 3.94735L6.89232 3.37557L8.13834 2.70848L8.6655 2.37494L8.95304 2.18434L9.38436 1.9461L10.0553 1.42196L10.1991 1.32666Z" fill="#FFE5F3"/>
<path d="M7.38086 15.6783C7.38086 15.6783 7.43548 15.5916 7.54473 15.4181C7.65397 15.2446 7.79856 15.0132 7.97849 14.7241C8.16484 14.4349 8.37048 14.1072 8.59539 13.7409C8.82673 13.3746 9.06128 12.9987 9.29904 12.6131C9.54324 12.2275 9.77779 11.8516 10.0027 11.4853C10.234 11.119 10.4397 10.7913 10.6196 10.5021C10.806 10.213 10.9538 9.98161 11.063 9.80811C11.1722 9.63461 11.2269 9.54785 11.2269 9.54785L11.3811 9.93342H8.82673C8.69178 9.93342 8.55041 9.9045 8.40261 9.84667C8.26123 9.78241 8.13914 9.69887 8.03632 9.59605C7.93993 9.48681 7.89173 9.36792 7.89173 9.2394V8.22729H9.17373V8.36224C9.17373 8.50362 9.19623 8.57752 9.24121 8.58394C9.28619 8.58394 9.36652 8.58394 9.48219 8.58394H13.4246L9.68461 14.4831L9.60749 14.3289H13.4149V15.6783H7.38086Z" fill="#D10D74"/>
<path d="M79.3232 19.7603C79.3232 19.7603 79.4364 19.5805 79.6628 19.221C79.8892 18.8614 80.1888 18.382 80.5617 17.7828C80.9479 17.1835 81.374 16.5044 81.8401 15.7453C82.3195 14.9862 82.8056 14.2072 83.2983 13.4082C83.8043 12.6092 84.2904 11.8302 84.7565 11.0711C85.2359 10.3121 85.662 9.63294 86.0349 9.03369C86.421 8.43444 86.7273 7.95504 86.9537 7.59549C87.1801 7.23594 87.2933 7.05616 87.2933 7.05616L87.6129 7.85516H82.3195C82.0398 7.85516 81.7469 7.79524 81.4406 7.67539C81.1476 7.54222 80.8946 7.3691 80.6815 7.15603C80.4818 6.92965 80.3819 6.68329 80.3819 6.41696V4.31958H83.0386V4.59923C83.0386 4.8922 83.0852 5.04534 83.1784 5.05866C83.2716 5.05866 83.4381 5.05866 83.6778 5.05866H91.8476L84.0973 17.2834L83.9375 16.9638H91.8276V19.7603H79.3232Z" fill="white"/>
<path d="M71.3538 20C70.5415 20 69.8158 19.8136 69.1766 19.4407C68.5374 19.0545 68.0313 18.5019 67.6585 17.7828C67.2989 17.0637 67.1191 16.2114 67.1191 15.226C67.1191 14.2405 67.3189 13.4016 67.7184 12.7091C68.1179 12.0166 68.6639 11.4906 69.3563 11.1311C70.0488 10.7715 70.8345 10.5918 71.7134 10.5918C72.2727 10.5918 72.8054 10.6783 73.3114 10.8514C73.8308 11.0246 74.2635 11.2909 74.6098 11.6504V12.5293V4H77.3863V19.7603H74.5898V18.0624L74.8095 18.6617C74.3568 19.0345 73.8507 19.3541 73.2914 19.6205C72.7321 19.8735 72.0863 20 71.3538 20ZM72.2727 17.6429C72.6456 17.6429 72.9718 17.5963 73.2515 17.5031C73.5444 17.3966 73.7975 17.2501 74.0105 17.0637C74.2369 16.8639 74.43 16.6176 74.5898 16.3246V14.1873C74.4833 13.8943 74.3168 13.6479 74.0904 13.4482C73.8774 13.2351 73.611 13.0753 73.2914 12.9688C72.9851 12.8489 72.6456 12.789 72.2727 12.789C71.8599 12.789 71.4737 12.8955 71.1141 13.1086C70.7679 13.3084 70.4883 13.588 70.2752 13.9476C70.0621 14.3071 69.9556 14.7199 69.9556 15.186C69.9556 15.6521 70.0621 16.0716 70.2752 16.4444C70.4883 16.8173 70.7679 17.1103 71.1141 17.3233C71.4737 17.5364 71.8599 17.6429 72.2727 17.6429Z" fill="white"/>
<path d="M62.5205 4H65.317V19.7603H62.5205V4Z" fill="white"/>
<path d="M56.175 20C55.1096 20 54.2041 19.8002 53.4584 19.4007C52.7259 19.0012 52.1666 18.4486 51.7804 17.7428C51.3943 17.037 51.2012 16.2247 51.2012 15.3058C51.2012 14.4269 51.4276 13.6346 51.8803 12.9288C52.3331 12.223 52.939 11.6637 53.6981 11.2509C54.4571 10.8248 55.3027 10.6117 56.2349 10.6117C57.4866 10.6117 58.512 10.9779 59.311 11.7103C60.1234 12.4294 60.6494 13.4748 60.8891 14.8464L54.0976 17.0037L53.4783 15.4856L58.3922 13.8277L57.8129 14.0874C57.7064 13.7411 57.5133 13.4415 57.2336 13.1885C56.9673 12.9221 56.5611 12.789 56.0152 12.789C55.6023 12.789 55.2361 12.8888 54.9165 13.0886C54.6102 13.275 54.3705 13.548 54.1974 13.9076C54.0376 14.2538 53.9577 14.6666 53.9577 15.146C53.9577 15.692 54.0576 16.1514 54.2574 16.5243C54.4571 16.8839 54.7301 17.1568 55.0763 17.3433C55.4226 17.5297 55.8087 17.6229 56.2349 17.6229C56.5412 17.6229 56.8341 17.5697 57.1138 17.4631C57.4067 17.3566 57.6931 17.2168 57.9727 17.0437L59.2112 19.1211C58.7451 19.3874 58.239 19.6005 57.6931 19.7603C57.1604 19.9201 56.6544 20 56.175 20Z" fill="white"/>
<path d="M46.6029 11.0312H49.3994V19.7603H46.6029V11.0312ZM46.543 7.93507C46.543 7.52226 46.7028 7.18268 47.0224 6.91635C47.3553 6.65001 47.7082 6.51685 48.081 6.51685C48.4539 6.51685 48.7935 6.65001 49.0998 6.91635C49.4194 7.18268 49.5792 7.52226 49.5792 7.93507C49.5792 8.34789 49.4194 8.68747 49.0998 8.9538C48.7935 9.20682 48.4539 9.33333 48.081 9.33333C47.7082 9.33333 47.3553 9.20682 47.0224 8.9538C46.7028 8.68747 46.543 8.34789 46.543 7.93507Z" fill="white"/>
<path d="M35.1416 19.7603V4H37.8782V12.789L37.8582 12.4494C38.1645 11.9035 38.5973 11.464 39.1566 11.1311C39.7159 10.7849 40.4017 10.6117 41.214 10.6117C42.0396 10.6117 42.7255 10.8581 43.2714 11.3508C43.8307 11.8302 44.1171 12.4561 44.1304 13.2285V19.7603H41.3339V14.2672C41.3205 13.881 41.214 13.5747 41.0143 13.3483C40.8278 13.1086 40.5082 12.9888 40.0555 12.9888C39.6293 12.9888 39.2565 13.1286 38.9369 13.4082C38.6173 13.6879 38.3709 14.0674 38.1978 14.5468C38.0247 15.0262 37.9381 15.5789 37.9381 16.2047V19.7603H35.1416Z" fill="white"/>
<path d="M29.4437 19.9401C28.7246 19.9401 28.0521 19.8136 27.4262 19.5606C26.8136 19.3075 26.2943 18.9546 25.8682 18.5019L27.0267 16.9638C27.4528 17.35 27.8457 17.6296 28.2052 17.8027C28.5781 17.9625 28.911 18.0425 29.204 18.0425C29.4304 18.0425 29.6301 18.0225 29.8032 17.9825C29.9897 17.9293 30.1362 17.856 30.2427 17.7628C30.3492 17.6563 30.4025 17.5231 30.4025 17.3633C30.4025 17.1369 30.3093 16.9571 30.1228 16.824C29.9497 16.6908 29.7233 16.5843 29.4437 16.5044C29.164 16.4112 28.8644 16.3179 28.5448 16.2247C27.7458 15.9717 27.1665 15.6055 26.807 15.1261C26.4608 14.6334 26.2876 14.1007 26.2876 13.5281C26.2876 13.0886 26.4008 12.6492 26.6272 12.2097C26.8669 11.757 27.2398 11.3841 27.7458 11.0911C28.2652 10.7849 28.931 10.6317 29.7433 10.6317C30.4757 10.6317 31.095 10.705 31.601 10.8514C32.107 10.9979 32.5864 11.2376 33.0392 11.5705L31.9805 13.2085C31.7275 13.0087 31.4412 12.8423 31.1216 12.7091C30.8153 12.5626 30.529 12.4827 30.2627 12.4694C30.023 12.4561 29.8166 12.4827 29.6434 12.5493C29.4836 12.6159 29.3571 12.7025 29.2639 12.809C29.1707 12.9155 29.1241 13.0287 29.1241 13.1486C29.1108 13.4016 29.204 13.6013 29.4037 13.7478C29.6168 13.8943 29.8831 14.0075 30.2027 14.0874C30.5223 14.1673 30.8353 14.2605 31.1416 14.367C31.5677 14.5002 31.9339 14.68 32.2402 14.9064C32.5465 15.1328 32.7795 15.4057 32.9393 15.7253C33.1124 16.0316 33.199 16.4045 33.199 16.8439C33.199 17.3766 33.0592 17.8826 32.7795 18.3621C32.5132 18.8281 32.1004 19.2077 31.5411 19.5006C30.9951 19.7936 30.296 19.9401 29.4437 19.9401Z" fill="white"/>
</svg>
