<svg width="138" height="36" viewBox="0 0 138 36" fill="none" xmlns="http://www.w3.org/2000/svg">
<path d="M15.0451 0H15.5278L16.8151 0.964286L17.3783 1.36607L18.2633 1.84821L18.4242 1.92857V2.08929L18.9069 2.25L20.0333 2.89286L21.8837 3.85714L23.4124 4.58036L24.2169 4.82143L25.1824 5.22321L27.4351 6.02679L29.527 6.66964L30.4924 6.99107L30.5729 7.07143V10.9286L30.3315 13.5804L29.8488 16.4732L29.366 18.4821L28.481 21.2946L27.6765 23.1429L26.7915 24.8304L25.826 26.4375L24.941 27.7232L24.056 28.8482L23.0906 29.9732L21.9642 31.1786H21.8033V31.3393L21.1596 31.9018L20.1942 32.7857L19.3896 33.4286L18.0219 34.4732L16.5737 35.3571L15.5278 36H15.0451L13.436 35.0357L12.3096 34.2321L12.0682 34.1518V33.9911L11.7464 33.8304L10.62 32.9464L9.49368 31.9821L8.76959 31.2589L8.12595 30.6964L7.40185 29.8929L6.67776 29.0893L5.63184 27.7232L4.50548 26.0357L3.37911 24.1071L2.41365 22.0982L1.93092 20.7321L1.28728 18.7232L0.804549 16.875L0.32182 14.2232L0.0804549 12.0536L0 10.9286V7.07143L0.724094 6.75L2.89638 6.10714L5.22957 5.30357L6.5973 4.74107L7.48231 4.41964L9.49368 3.45536L11.5855 2.33036L12.4705 1.76786L12.9532 1.44643L13.6773 1.04464L14.8037 0.160714L15.0451 0Z" fill="#D10D74"/>
<path d="M15.0696 1.99005H15.5009L16.6511 2.84773L17.1543 3.2051L17.945 3.63394L18.0888 3.70541V3.84836L18.5201 3.99131L19.5265 4.5631L21.1799 5.42078L22.5457 6.06404L23.2646 6.27846L24.1272 6.63583L26.14 7.35056L28.009 7.92235L28.8717 8.20824L28.9435 8.27971V11.7104L28.7279 14.0691L28.2966 16.6421L27.8653 18.4289L27.0745 20.9305L26.3557 22.5744L25.5649 24.0753L24.7023 25.5048L23.9115 26.6484L23.1208 27.649L22.2582 28.6496L21.2518 29.7217H21.108V29.8647L20.5329 30.365L19.6703 31.1512L18.9514 31.723L17.7294 32.6522L16.4354 33.4384L15.5009 34.0102H15.0696L13.6319 33.1525L12.6255 32.4377L12.4098 32.3663V32.2233L12.1223 32.0804L11.1159 31.2942L10.1095 30.4365L9.4625 29.7932L8.88741 29.2929L8.24044 28.5782L7.59347 27.8634L6.65896 26.6484L5.65256 25.1474L4.64615 23.4321L3.78353 21.6452L3.35221 20.4302L2.77713 18.6434L2.34581 16.9995L1.9145 14.6409L1.69884 12.7111L1.62695 11.7104V8.27971L2.27392 7.99382L4.21484 7.42203L6.29953 6.7073L7.52158 6.20698L8.31233 5.92109L10.1095 5.06341L11.9785 4.06278L12.7692 3.56247L13.2006 3.27657L13.8475 2.91921L14.8539 2.133L15.0696 1.99005Z" fill="#C2096A"/>
<path d="M10.8438 23.5175C10.8438 23.5175 10.9257 23.3874 11.0895 23.1271C11.2534 22.8669 11.4703 22.5198 11.7402 22.0861C12.0197 21.6523 12.3282 21.1607 12.6655 20.6113C13.0126 20.0619 13.3644 19.498 13.721 18.9196C14.0873 18.3413 14.4391 17.7774 14.7765 17.228C15.1235 16.6785 15.432 16.1869 15.7019 15.7532C15.9814 15.3194 16.2031 14.9724 16.367 14.7122C16.5308 14.4519 16.6128 14.3218 16.6128 14.3218L16.8441 14.9001H13.0126C12.8101 14.9001 12.5981 14.8568 12.3764 14.77C12.1643 14.6736 11.9812 14.5483 11.8269 14.3941C11.6824 14.2302 11.6101 14.0519 11.6101 13.8591V12.3409H13.5331V12.5434C13.5331 12.7554 13.5668 12.8663 13.6343 12.8759C13.7017 12.8759 13.8222 12.8759 13.9957 12.8759H19.9093L14.2994 21.7246L14.1837 21.4933H19.8949V23.5175H10.8438Z" fill="white"/>
<path d="M118.757 29.6404C118.757 29.6404 118.927 29.3708 119.266 28.8314C119.606 28.2921 120.055 27.573 120.615 26.6741C121.194 25.7753 121.833 24.7565 122.532 23.6179C123.251 22.4794 123.98 21.3108 124.719 20.1123C125.478 18.9138 126.208 17.7453 126.907 16.6067C127.626 15.4681 128.265 14.4494 128.824 13.5505C129.404 12.6517 129.863 11.9326 130.203 11.3932C130.542 10.8539 130.712 10.5842 130.712 10.5842L131.191 11.7827H123.251C122.832 11.7827 122.392 11.6929 121.933 11.5131C121.493 11.3133 121.114 11.0537 120.794 10.7341C120.495 10.3945 120.345 10.0249 120.345 9.62544V6.47937H124.33V6.89885C124.33 7.3383 124.4 7.56801 124.54 7.58798C124.679 7.58798 124.929 7.58798 125.289 7.58798H137.543L125.918 25.9251L125.678 25.4457H137.513V29.6404H118.757Z" fill="#D10D74"/>
<path d="M106.801 30C105.583 30 104.494 29.7204 103.535 29.1611C102.577 28.5818 101.818 27.7528 101.258 26.6742C100.719 25.5955 100.449 24.3171 100.449 22.839C100.449 21.3608 100.749 20.1024 101.348 19.0637C101.947 18.025 102.766 17.236 103.805 16.6966C104.844 16.1573 106.022 15.8876 107.341 15.8876C108.18 15.8876 108.979 16.0175 109.738 16.2772C110.517 16.5368 111.166 16.9363 111.685 17.4757V18.794V6H115.85V29.6405H111.655V27.0936L111.985 27.9925C111.306 28.5518 110.547 29.0312 109.708 29.4307C108.869 29.8102 107.9 30 106.801 30ZM108.18 26.4644C108.739 26.4644 109.228 26.3945 109.648 26.2547C110.087 26.0949 110.467 25.8752 110.786 25.5955C111.126 25.2959 111.416 24.9263 111.655 24.4869V21.2809C111.495 20.8414 111.246 20.4719 110.906 20.1723C110.587 19.8527 110.187 19.613 109.708 19.4532C109.248 19.2734 108.739 19.1835 108.18 19.1835C107.56 19.1835 106.981 19.3433 106.442 19.6629C105.922 19.9625 105.503 20.382 105.183 20.9214C104.864 21.4607 104.704 22.0799 104.704 22.779C104.704 23.4782 104.864 24.1074 105.183 24.6667C105.503 25.226 105.922 25.6654 106.442 25.985C106.981 26.3046 107.56 26.4644 108.18 26.4644Z" fill="#D10D74"/>
<path d="M93.5527 6H97.7475V29.6404H93.5527V6Z" fill="#D10D74"/>
<path d="M84.032 30C82.434 30 81.0757 29.7004 79.9571 29.1011C78.8584 28.5019 78.0195 27.6729 77.4402 26.6142C76.8609 25.5556 76.5713 24.3371 76.5713 22.9588C76.5713 21.6405 76.9109 20.4519 77.59 19.3933C78.2692 18.3346 79.178 17.4956 80.3166 16.8764C81.4552 16.2372 82.7236 15.9176 84.1219 15.9176C85.9995 15.9176 87.5376 16.4669 88.7361 17.5655C89.9546 18.6442 90.7436 20.2122 91.1031 22.2697L80.9159 25.5056L79.987 23.2285L87.3578 20.7416L86.4889 21.1311C86.3291 20.6117 86.0395 20.1623 85.62 19.7828C85.2205 19.3833 84.6112 19.1835 83.7923 19.1835C83.173 19.1835 82.6237 19.3333 82.1443 19.633C81.6849 19.9126 81.3253 20.3221 81.0657 20.8614C80.826 21.3808 80.7061 22 80.7061 22.7191C80.7061 23.5381 80.8559 24.2272 81.1556 24.7865C81.4552 25.3258 81.8647 25.7353 82.384 26.015C82.9034 26.2946 83.4826 26.4345 84.1219 26.4345C84.5813 26.4345 85.0207 26.3546 85.4402 26.1948C85.8797 26.035 86.3091 25.8252 86.7286 25.5655L88.5863 28.6817C87.8871 29.0812 87.1281 29.4008 86.3091 29.6405C85.5101 29.8802 84.7511 30 84.032 30Z" fill="#D10D74"/>
<path d="M69.6748 16.5468H73.8696V29.6404H69.6748V16.5468ZM69.585 11.9026C69.585 11.2834 69.8247 10.774 70.3041 10.3745C70.8034 9.97502 71.3328 9.77527 71.8921 9.77527C72.4514 9.77527 72.9607 9.97502 73.4202 10.3745C73.8996 10.774 74.1393 11.2834 74.1393 11.9026C74.1393 12.5218 73.8996 13.0312 73.4202 13.4307C72.9607 13.8102 72.4514 14 71.8921 14C71.3328 14 70.8034 13.8102 70.3041 13.4307C69.8247 13.0312 69.585 12.5218 69.585 11.9026Z" fill="#D10D74"/>
<path d="M52.4834 29.6404V6H56.5883V19.1835L56.5583 18.6742C57.0177 17.8552 57.6669 17.196 58.5059 16.6966C59.3448 16.1773 60.3735 15.9176 61.592 15.9176C62.8305 15.9176 63.8592 16.2871 64.6782 17.0262C65.5171 17.7453 65.9466 18.6841 65.9665 19.8427V29.6404H61.7718V21.4007C61.7518 20.8215 61.592 20.362 61.2924 20.0225C61.0127 19.6629 60.5333 19.4831 59.8542 19.4831C59.215 19.4831 58.6557 19.6929 58.1763 20.1124C57.6969 20.5318 57.3273 21.1011 57.0677 21.8202C56.808 22.5393 56.6782 23.3683 56.6782 24.3071V29.6404H52.4834Z" fill="#D10D74"/>
<path d="M43.9365 29.9101C42.8579 29.9101 41.8491 29.7204 40.9103 29.3408C39.9915 28.9613 39.2124 28.432 38.5732 27.7528L40.3111 25.4457C40.9503 26.025 41.5395 26.4444 42.0789 26.7041C42.6382 26.9438 43.1375 27.0637 43.577 27.0637C43.9166 27.0637 44.2162 27.0337 44.4759 26.9738C44.7555 26.8939 44.9752 26.784 45.135 26.6442C45.2948 26.4844 45.3747 26.2846 45.3747 26.0449C45.3747 25.7054 45.2349 25.4357 44.9553 25.236C44.6956 25.0362 44.356 24.8764 43.9365 24.7566C43.5171 24.6167 43.0676 24.4769 42.5882 24.3371C41.3897 23.9576 40.5208 23.4082 39.9815 22.6891C39.4621 21.9501 39.2025 21.1511 39.2025 20.2921C39.2025 19.633 39.3722 18.9738 39.7118 18.3146C40.0714 17.6355 40.6307 17.0762 41.3897 16.6367C42.1687 16.1773 43.1675 15.9476 44.386 15.9476C45.4846 15.9476 46.4134 16.0574 47.1725 16.2772C47.9315 16.4969 48.6506 16.8564 49.3298 17.3558L47.7418 19.8127C47.3623 19.5131 46.9328 19.2634 46.4534 19.0637C45.994 18.8439 45.5645 18.7241 45.165 18.7041C44.8055 18.6841 44.4958 18.7241 44.2362 18.824C43.9965 18.9239 43.8067 19.0537 43.6669 19.2135C43.5271 19.3733 43.4571 19.5431 43.4571 19.7229C43.4372 20.1024 43.577 20.402 43.8766 20.6217C44.1962 20.8415 44.5957 21.0112 45.0751 21.1311C45.5545 21.2509 46.0239 21.3908 46.4834 21.5506C47.1226 21.7503 47.6719 22.02 48.1313 22.3596C48.5907 22.6991 48.9403 23.1086 49.18 23.588C49.4397 24.0474 49.5695 24.6067 49.5695 25.2659C49.5695 26.0649 49.3598 26.824 48.9403 27.5431C48.5408 28.2422 47.9216 28.8115 47.0826 29.2509C46.2636 29.6904 45.2149 29.9101 43.9365 29.9101Z" fill="#D10D74"/>
</svg>
