<svg width="65" height="64" viewBox="0 0 65 64" fill="none" xmlns="http://www.w3.org/2000/svg">
<path d="M23.5786 29.4399H24.4746L25.3706 29.8239L27.2906 31.6159L28.4426 32.6399L29.4666 33.5359L30.8746 34.8159L31.8986 35.7119L33.3066 37.1199L34.4586 38.0159L34.9706 38.5279V39.4239L33.9466 40.3199L32.7946 40.7039H31.6426L30.1066 40.3199L27.6746 39.1679L25.7546 37.7599L24.4746 36.8639L23.8346 36.4799L23.3226 36.6079L23.1946 37.2479L25.2426 38.7839L27.0346 39.9359V40.1919L27.8026 40.4479L29.3386 41.2159L30.8746 41.7279L32.9226 41.9839L33.3066 43.7759V45.6959L32.9226 47.4879L32.2826 48.8959L31.8986 49.7919L32.1546 50.1759H32.7946L33.6906 48.3839L34.2026 47.1039L34.4586 45.6959V43.7759L34.0746 41.4719L35.2266 40.7039L35.9946 39.8079L36.1226 39.5519V38.3999L35.6106 37.5039L34.4586 36.6079L32.9226 35.1999L33.0506 34.5599L33.4346 34.6879L33.9466 35.4559L34.9706 36.3519L36.2506 36.8639H38.0426L39.5786 36.0959L39.9626 35.7119L40.4746 35.8399L40.9866 36.6079L42.2666 37.3759L42.6506 37.5039H44.1866L45.2106 37.2479L45.4666 38.2719L45.5946 40.4479L45.3386 42.4959L44.6986 44.2879L43.8026 45.6959L42.3946 47.2319L42.0106 47.6159L41.8826 60.9279H23.0666L22.9386 47.6159L21.5306 45.8239L20.1226 44.1599L19.0986 42.8799L18.3306 41.9839V41.7279L17.9466 41.5999L16.7946 40.0639L15.8986 38.9119L15.6426 38.0159L15.7706 36.8639L16.6666 35.8399L17.8186 34.5599L20.1226 32.2559L21.1466 31.3599L22.1706 30.3359L22.8106 29.6959L23.5786 29.4399Z" fill="#D10D74"/>
<path d="M38.2992 21.504H39.8352L40.7312 21.76L41.3712 22.272L42.0112 23.552V25.216L40.4752 31.616L39.8352 34.048L39.0672 35.072L38.2992 35.584L37.9152 35.712H36.2512L35.2272 35.2L34.4592 34.304L34.0752 33.024L34.2032 31.872L36.1232 23.808L36.6352 22.656L37.2752 21.888L37.6592 21.632L38.2992 21.504Z" fill="#D10D74"/>
<path d="M31.7709 19.072H32.9229L34.0749 19.584L34.9709 20.608L35.2269 21.248V22.784L33.1789 31.36L32.5389 33.408L32.1549 34.048L31.5149 33.92L30.3629 32.768L28.9549 31.616L27.5469 30.336V28.928L29.4669 20.992L30.2349 19.84L31.2589 19.2L31.7709 19.072Z" fill="#D10D74"/>
<path d="M44.4432 23.808H46.1072L47.0032 24.32L47.6432 25.344V26.752L46.2352 32.512L45.5952 35.072L44.9552 35.968L44.1872 36.352H42.6512L41.8832 35.84L41.3712 35.2L41.1152 34.432L41.2432 33.152L42.6512 27.264L43.2912 24.96L43.8032 24.192L44.4432 23.808Z" fill="#D10D74"/>
<path d="M24.9866 18.944H26.0106L26.9066 19.328L27.8026 20.352L28.0586 21.248L27.9306 22.528L27.1626 25.728L26.7786 27.776L26.5226 28.928H26.0106L24.9866 28.416L24.4746 28.288H23.5786L22.1706 28.8L21.5306 29.44H21.0186L21.1466 28.16L22.1706 23.936L22.5546 21.888L23.0666 20.224L23.7066 19.456L24.9866 18.944Z" fill="#D10D74"/>
<path d="M48.6668 6.40002H49.5628L49.9468 6.78402V7.68002L48.5388 10.112L47.7708 11.52L45.9788 14.72L45.3388 15.744L44.1868 15.872L43.6748 15.36L43.8028 14.464L45.5948 11.392L46.6188 9.72802L48.4108 6.65602L48.6668 6.40002Z" fill="#D10D74"/>
<path d="M15.2589 6.40002H16.4109L17.8189 8.96002L19.2269 11.264L21.0189 14.336L21.2749 15.104L21.0189 15.744L20.7629 15.872L19.6109 15.744L18.5869 14.08L16.9229 11.136L16.5389 10.368L15.2589 8.19202L15.0029 7.80802V6.65602L15.2589 6.40002Z" fill="#D10D74"/>
<path d="M60.9548 18.5601H61.7228L62.2348 19.0721V19.8401L61.5948 20.4801L60.6988 20.9921L59.8028 21.3761L57.8828 22.5281L54.5548 24.4481L53.9148 24.8321H53.1468L52.7628 24.4481L52.6348 23.6801L53.1468 23.0401L54.9388 22.0161L57.1148 20.8641L59.2908 19.5841H59.5468V19.3281L60.9548 18.5601Z" fill="#D10D74"/>
<path d="M3.22684 18.5601H3.99484L5.91484 19.7121L8.98685 21.5041L9.75484 21.8881L10.9068 22.5281L12.1868 23.4241V24.4481L11.8028 24.8321H11.0348L8.09084 23.1681L6.29884 22.1441V21.8881L5.53084 21.6321L4.76284 21.1201L3.86684 20.7361L2.84284 20.0961L2.71484 19.9681V19.0721L3.22684 18.5601Z" fill="#D10D74"/>
<path d="M32.0266 1.92004H32.9226L33.3066 2.43204V12.16L32.7946 12.672L31.8986 12.544L31.6426 12.16V2.30404L32.0266 1.92004Z" fill="#D10D74"/>
</svg>
