<svg width="64" height="64" viewBox="0 0 64 64" fill="none" xmlns="http://www.w3.org/2000/svg">
<path d="M42.8803 25.984H47.1043L49.6643 26.496L51.4563 27.008L53.5043 28.032L55.4243 29.312L56.7043 30.464L57.6003 31.232L59.0083 33.024L60.0323 34.688L61.0563 36.864L61.6963 38.784L62.0803 40.96V45.056L61.6963 47.232L60.8003 49.792L59.5203 52.224L59.0083 52.992H58.7523L58.4963 53.504L58.1123 54.144L56.8323 55.552L55.4243 56.704L53.5043 57.984L50.8163 59.136L48.6403 59.776L47.1043 60.032H42.8803L40.3203 59.52L37.8883 58.624L35.8403 57.6L34.4323 56.576L33.1523 55.424L32.5123 54.784L31.2323 53.248V52.992H30.9763L29.9523 51.328L28.9283 49.152L28.2883 47.232L27.9043 45.056V40.96L28.4163 38.272L29.4403 35.712L30.4643 33.792L31.4883 32.384L32.5123 31.232L33.1523 30.592L34.0483 29.696L35.8403 28.416L38.7843 26.88L40.8323 26.368L42.8803 25.984ZM51.0723 36.992L50.3043 37.504L47.7443 40.064L46.8483 41.088L45.6963 42.24L44.6723 43.136L43.5203 44.288L43.0083 44.032L41.3443 42.368L40.3203 41.472L39.2963 40.448L38.6563 40.192L37.6323 40.32L36.9923 40.704L36.6083 41.344L36.4803 42.368L36.8643 43.264L42.2403 48.64L43.1363 49.024L44.0323 48.896L45.1843 48.128L48.2563 45.056L49.1523 44.032L53.2483 39.936L53.5043 39.424V38.272L52.9923 37.504L52.2243 36.992H51.0723Z" fill="#D10D74"/>
<path d="M25.2159 1.92004H26.7519L31.4879 4.09604L34.5599 5.50404L35.8399 6.01604L41.0879 8.44804L44.6719 10.112L47.6159 11.392L49.4079 12.288L49.9199 12.928L50.1759 13.696V22.656H49.2799L47.1039 22.272L44.9279 22.144H42.8799L42.7519 17.92L42.3679 17.28L41.3439 16.64L39.6799 15.872L38.3999 15.36L33.4079 13.056L29.8239 11.392L27.9039 10.496L26.4959 9.98404H25.5999L23.0399 11.008L18.4319 13.184L14.9759 14.72L12.9279 15.744L11.7759 16.128L9.98392 17.024L9.47192 17.664L9.21592 18.56V29.44L9.34392 32L9.85592 35.2L10.7519 38.528L11.6479 40.704L12.7999 42.88L14.3359 45.184L16.1279 47.488L16.6399 48.128L17.6639 49.024L19.4559 50.56L20.9919 51.712L23.0399 52.992L24.0639 53.504L25.8559 54.144L27.2639 53.888L28.2879 55.296L29.3119 56.576L30.7199 58.112L31.9999 59.136V59.648L29.9519 60.672L26.7519 62.08H25.2159L21.7599 60.544L18.5599 58.88L16.6399 57.728L14.8479 56.32L13.4399 55.168L11.5199 53.376L9.98392 51.712L8.57592 49.92L7.03992 47.744L6.78392 46.976H6.52792L5.63192 45.312L5.11992 44.032L3.96792 41.472L2.94392 38.272L2.30392 35.328L1.91992 32.384V13.184L2.55992 12.288L4.60792 11.264L7.29592 10.112L10.8799 8.44804L15.8719 6.14404L16.8959 5.63204L18.3039 5.12004L21.8879 3.45604L25.2159 1.92004Z" fill="#D10D74"/>
<path d="M25.7277 13.824H26.3677L28.2877 14.72L31.3597 16.128L34.0477 17.28L36.8637 18.56L39.0397 19.712V23.04L36.7357 23.936L34.0477 25.344L32.6397 26.368L31.9997 26.752H31.7437L31.4877 27.264L30.4637 28.16L29.4397 29.184L27.7757 31.36L26.8797 32.64L25.7277 35.328L24.9597 37.504L24.4477 39.808L24.3197 40.832V45.184L24.8317 48L25.2157 49.28V49.792L24.5757 49.664L22.7837 48.512L21.2477 47.36L19.7117 45.952L18.4317 44.672L16.7677 42.496L15.7437 40.704L14.4637 38.016L13.6957 35.84L13.0557 32.896L12.9277 31.872V19.712L14.9757 18.688L17.9197 17.28L20.2237 16.256L21.6317 15.744L23.4237 14.848L25.7277 13.824Z" fill="#D10D74"/>
</svg>
