<svg width="65" height="64" viewBox="0 0 65 64" fill="none" xmlns="http://www.w3.org/2000/svg">
<path d="M31.8211 4.86401L33.9971 4.99201L36.3011 5.63201L37.7091 6.52801L38.9891 7.68001L39.8851 8.70401L41.0371 10.88L41.4211 12.416V15.616L40.7811 17.664L40.0131 19.072L38.9891 20.352L38.3491 20.864L38.0931 19.968L37.8371 18.048L37.1971 16.768L36.4291 15.872L35.1491 14.976L35.2771 14.336L35.9171 13.312L36.1731 11.904L36.0451 10.112L35.2771 8.57601L34.3811 7.80801L33.2291 7.29601H31.4371L29.9011 8.06401L29.1331 8.96001L28.6211 10.112L28.4931 11.904L28.7491 13.312L29.5171 14.592V14.976L28.1091 16L27.4691 16.768L26.8291 18.048L26.4451 20.736H26.0611L24.9091 19.456L23.8851 17.664L23.2451 15.616V12.416L23.6291 10.88L24.7811 8.70401L26.1891 7.16801L27.4691 6.14401L28.3651 5.63201L30.6691 4.99201L31.8211 4.86401Z" fill="#D10D74"/>
<path d="M50.7649 40.96H53.8369L55.7569 41.472L57.6769 42.496L59.2129 43.904L60.2369 45.312L61.0049 46.976L61.3889 48.384V51.584L60.8769 53.248L59.8529 55.296L58.5729 56.832H58.3169L57.9329 54.4L57.4209 53.12L56.0129 51.584L55.1169 50.944L55.2449 50.304L55.8849 49.28L56.1409 48L56.0129 46.08L55.2449 44.544L54.3489 43.776L53.7089 43.392L53.1969 43.264H51.4049L49.8689 44.032L49.1009 44.928L48.5889 46.08L48.4609 48L48.7169 49.28L49.4849 50.56V50.944L48.4609 51.712L47.4369 52.864L46.7969 54.4L46.4129 56.832L45.9009 56.576L44.7489 55.296L43.7249 53.248L43.2129 51.584V48.512L43.7249 46.592L44.7489 44.672L46.1569 43.136L47.4369 42.24L49.2289 41.344L50.7649 40.96Z" fill="#D10D74"/>
<path d="M10.8293 40.96H13.9013L15.8213 41.472L17.6133 42.496L18.6373 43.264L19.5333 44.16L20.4293 45.568L21.0693 46.976L21.3253 47.872V52.096L20.6853 53.888L19.7893 55.424L18.5093 56.832H18.2533L17.8693 54.4L17.2293 52.864L16.0773 51.584L15.1813 50.944L15.3093 50.304L15.9493 49.28L16.2053 48L16.0773 46.08L15.3093 44.544L14.4133 43.776L13.2613 43.264H11.4693L10.5733 43.648L9.54935 44.416L8.78135 45.696L8.52535 47.104L8.65335 48.896L9.29335 50.176L9.54935 50.56V50.944L8.52535 51.712L7.62934 52.608L6.98934 53.632L6.60534 54.912L6.34934 56.832L5.96534 56.704L4.68534 55.04L3.66134 52.992L3.27734 51.584V48.384L3.91734 46.336L4.81334 44.672L6.22134 43.136L7.62934 42.112L9.29335 41.344L10.8293 40.96Z" fill="#D10D74"/>
<path d="M31.3091 23.936H33.3571V28.928L34.5091 29.184L35.7891 29.824L37.0691 30.976L37.4531 31.616L38.2211 33.152L38.3491 33.664V36.352L37.8371 37.76L38.3491 38.016L40.7811 39.808L42.7011 41.216L43.3411 41.856L44.6211 42.752L45.0051 43.008L44.8771 43.52L43.8531 44.928L43.3411 44.8L42.3171 43.904L40.3971 42.496L39.5011 41.984L37.9651 40.832L37.3251 40.192L36.4291 39.68L35.1491 40.576L33.6131 41.088H31.0531L29.6451 40.576L28.3651 39.808L28.1091 39.68L26.8291 40.576L26.4451 40.96L24.6531 42.368L23.7571 42.88L21.5811 44.544H21.3251L21.1971 44.928L20.6851 44.8L19.6611 43.392L19.7891 42.88L20.9411 42.112L21.8371 41.472L22.4771 40.832L24.9091 39.04L26.5731 37.76H26.8291L26.3171 36.352V33.664L26.8291 32.256L27.4691 31.104L28.4931 30.08L29.5171 29.44L31.0531 28.928H31.3091V23.936ZM32.3331 31.104L31.0531 31.36L29.7731 32L29.0051 32.896L28.4931 34.176V35.968L29.2611 37.504L30.5411 38.4L31.4371 38.784L32.3331 38.912L33.6131 38.656L34.8931 37.888L35.5331 37.248L36.1731 35.968V34.048L35.4051 32.512L34.5091 31.744L33.3571 31.232L32.3331 31.104Z" fill="#D10D74"/>
<path d="M31.3093 16H33.3573L34.5093 16.384L35.5333 17.28L36.1733 18.176L36.4293 18.944V22.144L35.4053 22.656L33.8693 23.04H30.7973L29.2613 22.656L28.2373 22.144V18.944L28.7493 17.792L29.6453 16.768L30.2853 16.256L31.3093 16Z" fill="#D10D74"/>
<path d="M51.277 51.968H53.325L54.605 52.48L55.501 53.248L56.141 54.144L56.397 54.912V58.24L55.373 58.624L53.837 59.008H50.765L49.229 58.624L48.333 58.24V54.912L48.717 53.888L49.357 52.992L50.509 52.224L51.277 51.968Z" fill="#D10D74"/>
<path d="M11.2126 51.968H13.3886L14.5406 52.48L15.4366 53.12L16.0766 54.016L16.3326 54.912V58.24L15.0526 58.752L13.9006 59.008H10.8286L9.29255 58.624L8.26855 58.24V54.912L8.78055 53.76L9.54855 52.864L10.5726 52.224L11.2126 51.968Z" fill="#D10D74"/>
<path d="M11.4694 44.928H13.1334L13.9014 45.44L14.4134 46.208V48.768L13.9014 49.536L13.1334 50.048H11.4694L10.5734 49.28L10.3174 48.768V46.208L10.8294 45.44L11.4694 44.928Z" fill="#D10D74"/>
<path d="M51.5329 44.928H53.1969L54.0929 45.696L54.3489 46.208V48.768L53.8369 49.536L53.1969 50.048H51.5329L50.7649 49.536L50.2529 48.768V46.208L50.7649 45.44L51.5329 44.928Z" fill="#D10D74"/>
<path d="M31.5652 8.95996H33.1012L33.8692 9.47196L34.3812 10.24V12.8L33.8692 13.568L33.1012 14.08H31.5652L30.7972 13.568L30.2852 12.8V10.24L30.7972 9.47196L31.5652 8.95996Z" fill="#D10D74"/>
<path d="M51.4052 22.272H51.7892L52.8132 24.064L52.6852 24.576L51.2772 25.344L50.6372 25.216L49.7412 23.68L49.9972 23.168L51.4052 22.272Z" fill="#D10D74"/>
<path d="M12.8765 22.272L13.5165 22.4L14.9245 23.296L14.7965 23.936L13.9005 25.344L13.1325 25.216L11.8525 24.448L11.9805 23.808L12.8765 22.272Z" fill="#D10D74"/>
<path d="M45.2613 16.1281L46.0293 16.2561L47.4373 17.2801L47.1813 17.9201L46.1573 19.0721L45.5173 18.9441L44.2373 17.9201L44.3653 17.2801L45.2613 16.1281Z" fill="#D10D74"/>
<path d="M18.8934 16.1281L19.5334 16.2561L20.4294 17.4081L20.3014 18.0481L19.0214 19.0721L18.3814 18.9441L17.3574 17.6641L17.4854 17.1521L18.6374 16.2561L18.8934 16.1281Z" fill="#D10D74"/>
<path d="M48.8446 18.816L49.4846 19.456L50.3806 20.48L50.2526 20.992L49.4846 21.504L48.7166 22.016L47.9486 21.12L47.3086 20.608L47.4366 20.096L48.4606 19.2L48.8446 18.816Z" fill="#D10D74"/>
<path d="M40.0126 54.272H40.3966L41.1646 56.192V56.448L39.5006 57.088L38.8606 56.96L38.3486 55.296V54.912L40.0126 54.272Z" fill="#D10D74"/>
<path d="M15.6932 18.816L16.2052 19.072L17.3572 20.224L17.2292 20.736L16.5892 21.248L16.0772 21.888L15.5652 21.76L14.7972 21.12L14.2852 20.864L14.4132 20.352L15.5652 19.072L15.6932 18.816Z" fill="#D10D74"/>
<path d="M24.269 54.272L24.909 54.4L26.317 54.912L25.933 56.448L25.677 57.088L24.781 56.96L23.501 56.448L23.629 55.808L24.269 54.272Z" fill="#D10D74"/>
<path d="M53.4531 26.24H53.7091L54.3491 27.776L54.4771 28.544L52.9411 29.056H52.3011L51.6611 27.264V26.88L53.4531 26.24Z" fill="#D10D74"/>
<path d="M10.9575 26.24L12.2375 26.624L13.0055 26.88L12.8775 27.648L12.3655 29.056L11.3415 28.928L10.1895 28.544L10.4455 27.392L10.9575 26.24Z" fill="#D10D74"/>
<path d="M27.7249 55.424L29.1329 55.552L29.7729 55.68L29.6449 57.344L29.5169 57.984L28.2369 57.856L27.2129 57.6L27.5969 55.552L27.7249 55.424Z" fill="#D10D74"/>
<path d="M36.1726 55.424H36.9406L37.3246 56.832V57.6L36.5566 57.856L35.1486 57.984L34.8926 56.448V55.68L36.1726 55.424Z" fill="#D10D74"/>
<path d="M54.3495 30.464H54.9895L55.3735 32.512V32.768L53.7095 33.024H53.1975L52.9415 31.744L52.8135 30.848L54.3495 30.464Z" fill="#D10D74"/>
<path d="M9.67697 30.464L10.957 30.592L11.853 30.848L11.597 32.768L11.469 33.024L9.29297 32.768L9.54897 30.848L9.67697 30.464Z" fill="#D10D74"/>
<path d="M53.3253 34.816H55.3733V37.12H53.8373L53.1973 36.992V34.944L53.3253 34.816Z" fill="#D10D74"/>
<path d="M9.29297 34.816H11.341L11.469 34.944V36.992L10.573 37.12H9.29297V34.816Z" fill="#D10D74"/>
<path d="M31.3086 55.808H33.3566V58.112H31.3086V55.808Z" fill="#D10D74"/>
<path d="M11.3408 38.7841L11.8528 38.9121L11.9808 40.0641L10.4448 40.4481H9.80476L9.67676 39.1681L11.3408 38.7841Z" fill="#D10D74"/>
<path d="M52.9406 38.7841L54.7326 39.0401L54.9886 39.1681L54.8606 40.4481L53.8366 40.3201L52.6846 39.9361L52.8126 38.9121L52.9406 38.7841Z" fill="#D10D74"/>
<path d="M42.4447 53.248L42.9567 53.376L43.7247 54.656L43.8527 55.04L43.0847 55.552L42.5727 55.424L41.8047 53.888L41.9327 53.504L42.4447 53.248Z" fill="#D10D74"/>
<path d="M42.5728 14.3361L43.3408 14.5921L43.7248 14.8481L43.4688 15.6161L42.7008 16.7681L41.9328 16.5121L41.6768 16.3841L41.9328 15.6161L42.5728 14.3361Z" fill="#D10D74"/>
<path d="M21.8374 14.3361H22.0934L22.9894 16.1281V16.3841L22.2214 16.7681L21.8374 16.6401L20.9414 15.1041V14.8481L21.8374 14.3361Z" fill="#D10D74"/>
<path d="M21.8375 53.248L22.4775 53.376L22.8615 53.632L22.6055 54.4L21.9655 55.552L21.3255 55.424L20.8135 54.912L21.7095 53.376L21.8375 53.248Z" fill="#D10D74"/>
</svg>
