<svg width="64" height="64" viewBox="0 0 64 64" fill="none" xmlns="http://www.w3.org/2000/svg">
<path d="M41.3436 12.032H41.5996V51.968L40.9596 51.712L39.5516 50.432L37.5036 48.896L35.9676 47.872L34.5596 47.104L31.3596 45.312L27.7756 43.648L25.2156 42.624L23.2956 42.112L20.8636 41.344L18.4316 40.832V23.168L21.7596 22.4L24.1916 21.632L25.8556 21.12L28.0316 20.224L31.1036 18.816L34.1756 17.152L35.5836 16.256L36.6076 15.744L38.6556 14.208L39.9356 13.184L41.3436 12.032Z" fill="#D10D74"/>
<path d="M45.9519 5.88794H47.9999L49.1519 6.39994L50.0479 7.03994L50.8159 8.19194L51.0719 8.95994V55.0399L50.5599 56.1919L49.9199 57.0879L48.7679 57.8559L47.9999 58.1119H45.9519L44.7999 57.5999L43.7759 56.7039L43.1359 55.8079L42.8799 55.0399V8.95994L43.3919 7.80794L44.2879 6.78394L45.1839 6.14394L45.9519 5.88794Z" fill="#D10D74"/>
<path d="M8.44824 23.424H17.0242V40.576H8.44824V23.424Z" fill="#D10D74"/>
<path d="M3.96779 23.424H7.03979V40.576H3.96779L2.55979 40.064L1.27979 38.912L0.639789 37.888L0.383789 36.992V27.008L0.895789 25.6L2.04779 24.32L3.07179 23.68L3.96779 23.424Z" fill="#D10D74"/>
<path d="M8.44824 41.984H17.2802L17.0242 43.264L15.8722 47.744L15.4882 49.792L14.9762 51.712L14.3362 52.48L14.0802 52.608H9.34424L8.57624 51.968L8.44824 51.712V41.984Z" fill="#D10D74"/>
<path d="M54.1442 41.2159L55.2962 41.3439L59.9042 43.5199L60.5442 44.1599L60.6722 44.5439V45.4399L60.1602 46.3359L59.6482 46.5919H58.3682L53.6322 44.2879L53.1202 43.6479L52.9922 43.3919V42.3679L53.3762 41.7279L53.7602 41.3439L54.1442 41.2159Z" fill="#D10D74"/>
<path d="M58.3682 17.408H59.6482L60.2882 17.792L60.6722 18.56V19.456L60.1602 20.352L58.8802 20.992L57.9842 21.376L54.9122 22.784H54.0162L53.1202 22.016L52.9922 21.76V20.608L53.5042 19.84L55.9362 18.56L58.3682 17.408Z" fill="#D10D74"/>
<path d="M56.3198 30.464H62.7198L63.4878 31.104L63.6158 31.36V32.64L62.9758 33.408L62.7198 33.536H56.3198L55.5518 32.896L55.4238 32.64V31.36L56.0638 30.592L56.3198 30.464Z" fill="#D10D74"/>
</svg>
